<svg width="1600" height="960" viewBox="0 0 1600 960" fill="none" xmlns="http://www.w3.org/2000/svg">
  <rect width="1600" height="960" rx="40" fill="#F8FAFC"/>
  <rect x="56" y="56" width="1488" height="848" rx="32" fill="#FFFFFF" stroke="#CBD5E1" stroke-width="2"/>
  <rect x="104" y="96" width="320" height="24" rx="12" fill="#E0F2FE"/>
  <rect x="104" y="150" width="1392" height="88" rx="24" fill="#F8FAFC" stroke="#CBD5E1" stroke-width="2"/>
  <circle cx="152" cy="194" r="18" fill="#0EA5E9"/>
  <rect x="188" y="176" width="300" height="36" rx="10" fill="#E2E8F0"/>
  <rect x="1210" y="171" width="120" height="46" rx="23" fill="#DBEAFE"/>
  <rect x="1348" y="171" width="100" height="46" rx="23" fill="#DCFCE7"/>

  <rect x="104" y="286" width="902" height="560" rx="28" fill="#F8FAFC" stroke="#CBD5E1" stroke-width="2"/>
  <rect x="1044" y="286" width="452" height="560" rx="28" fill="#F8FAFC" stroke="#CBD5E1" stroke-width="2"/>

  <text x="136" y="340" fill="#0F172A" font-size="34" font-family="Georgia, serif" font-weight="700">Dictionary Search</text>
  <text x="136" y="382" fill="#475569" font-size="22" font-family="Arial, sans-serif">Fuzzy Coptic, English, and Greek lookup with grammatical detail.</text>

  <rect x="136" y="420" width="838" height="172" rx="24" fill="#FFFFFF" stroke="#CBD5E1" stroke-width="2"/>
  <text x="168" y="472" fill="#0284C7" font-size="42" font-family="Georgia, serif" font-weight="700">ⲉⲙⲓ</text>
  <rect x="168" y="496" width="44" height="30" rx="15" fill="#E2E8F0"/>
  <text x="181" y="517" fill="#334155" font-size="18" font-family="Arial, sans-serif" font-weight="700">V</text>
  <text x="168" y="548" fill="#0F172A" font-size="22" font-family="Arial, sans-serif"><tspan font-weight="700">intr:</tspan> know, understand</text>
  <text x="168" y="582" fill="#334155" font-size="20" font-family="Arial, sans-serif">without obj, with ethic dat, obj with ⲉ-</text>

  <rect x="136" y="624" width="838" height="172" rx="24" fill="#FFFFFF" stroke="#CBD5E1" stroke-width="2"/>
  <text x="168" y="676" fill="#0284C7" font-size="42" font-family="Georgia, serif" font-weight="700">ⲟⲩⲟⲛ</text>
  <rect x="168" y="700" width="44" height="30" rx="15" fill="#E2E8F0"/>
  <text x="181" y="721" fill="#334155" font-size="18" font-family="Arial, sans-serif" font-weight="700">N</text>
  <text x="168" y="752" fill="#0F172A" font-size="22" font-family="Arial, sans-serif"><tspan font-weight="700">vb,</tspan> be</text>
  <text x="168" y="786" fill="#334155" font-size="20" font-family="Arial, sans-serif">double suff, with dat, auxil to other vb</text>

  <text x="1076" y="340" fill="#0F172A" font-size="34" font-family="Georgia, serif" font-weight="700">Why It Helps</text>
  <text x="1076" y="392" fill="#475569" font-size="22" font-family="Arial, sans-serif">Built for fast academic browsing, not just casual lookup.</text>

  <rect x="1076" y="438" width="388" height="78" rx="22" fill="#DBEAFE"/>
  <text x="1112" y="486" fill="#0F172A" font-size="22" font-family="Arial, sans-serif" font-weight="700">3,330 lexical entries</text>

  <rect x="1076" y="536" width="388" height="78" rx="22" fill="#DCFCE7"/>
  <text x="1112" y="584" fill="#0F172A" font-size="22" font-family="Arial, sans-serif" font-weight="700">Inline dialect forms</text>

  <rect x="1076" y="634" width="388" height="78" rx="22" fill="#FDE68A"/>
  <text x="1112" y="682" fill="#0F172A" font-size="22" font-family="Arial, sans-serif" font-weight="700">Greek equivalents</text>

  <rect x="1076" y="732" width="388" height="78" rx="22" fill="#E9D5FF"/>
  <text x="1112" y="780" fill="#0F172A" font-size="22" font-family="Arial, sans-serif" font-weight="700">Readable grammar labels</text>
</svg>
