<svg width="1600" height="960" viewBox="0 0 1600 960" fill="none" xmlns="http://www.w3.org/2000/svg">
  <rect width="1600" height="960" rx="40" fill="#F1F5F9"/>
  <rect x="56" y="56" width="1488" height="848" rx="32" fill="#0F172A"/>
  <rect x="96" y="96" width="1408" height="120" rx="28" fill="#111827" stroke="#334155" stroke-width="2"/>
  <text x="136" y="150" fill="#E2E8F0" font-size="30" font-family="Georgia, serif" font-weight="700">Virtual Coptic Keyboard</text>
  <text x="136" y="188" fill="#94A3B8" font-size="22" font-family="Arial, sans-serif">Type uncommon characters without relying on system keyboard layouts.</text>

  <rect x="96" y="256" width="1408" height="608" rx="28" fill="#111827" stroke="#334155" stroke-width="2"/>
  <rect x="132" y="296" width="1336" height="86" rx="24" fill="#0B1220" stroke="#334155" stroke-width="2"/>
  <text x="176" y="350" fill="#38BDF8" font-size="40" font-family="Georgia, serif" font-weight="700">ϯ ⲉⲙⲓ ⲛ̄ⲥⲁ ⲟⲩⲟⲛ</text>

  <g fill="#1E293B" stroke="#334155" stroke-width="2">
    <rect x="132" y="426" width="176" height="84" rx="20"/>
    <rect x="328" y="426" width="176" height="84" rx="20"/>
    <rect x="524" y="426" width="176" height="84" rx="20"/>
    <rect x="720" y="426" width="176" height="84" rx="20"/>
    <rect x="916" y="426" width="176" height="84" rx="20"/>
    <rect x="1112" y="426" width="176" height="84" rx="20"/>
    <rect x="1308" y="426" width="160" height="84" rx="20"/>

    <rect x="172" y="532" width="176" height="84" rx="20"/>
    <rect x="368" y="532" width="176" height="84" rx="20"/>
    <rect x="564" y="532" width="176" height="84" rx="20"/>
    <rect x="760" y="532" width="176" height="84" rx="20"/>
    <rect x="956" y="532" width="176" height="84" rx="20"/>
    <rect x="1152" y="532" width="176" height="84" rx="20"/>

    <rect x="236" y="638" width="176" height="84" rx="20"/>
    <rect x="432" y="638" width="176" height="84" rx="20"/>
    <rect x="628" y="638" width="176" height="84" rx="20"/>
    <rect x="824" y="638" width="176" height="84" rx="20"/>
    <rect x="1020" y="638" width="176" height="84" rx="20"/>
    <rect x="1216" y="638" width="176" height="84" rx="20"/>

    <rect x="408" y="744" width="784" height="84" rx="20"/>
  </g>

  <g fill="#E2E8F0" font-size="34" font-family="Georgia, serif" text-anchor="middle">
    <text x="220" y="478">ⲁ</text>
    <text x="416" y="478">ⲃ</text>
    <text x="612" y="478">ⲅ</text>
    <text x="808" y="478">ⲇ</text>
    <text x="1004" y="478">ⲉ</text>
    <text x="1200" y="478">ⲍ</text>
    <text x="1388" y="478">ϯ</text>

    <text x="260" y="584">ⲏ</text>
    <text x="456" y="584">ⲑ</text>
    <text x="652" y="584">ⲓ</text>
    <text x="848" y="584">ⲕ</text>
    <text x="1044" y="584">ⲗ</text>
    <text x="1240" y="584">ⲙ</text>

    <text x="324" y="690">ⲛ</text>
    <text x="520" y="690">ⲝ</text>
    <text x="716" y="690">ⲟ</text>
    <text x="912" y="690">ⲡ</text>
    <text x="1108" y="690">ⲣ</text>
    <text x="1304" y="690">ⲥ</text>
  </g>

  <text x="800" y="799" fill="#94A3B8" font-size="28" font-family="Arial, sans-serif" text-anchor="middle">Space / combining marks / search-friendly input</text>
</svg>
