<?xml version="1.0" encoding="UTF-8"?>
<svg id="Layer_2" data-name="Layer 2" xmlns="http://www.w3.org/2000/svg" xmlns:xlink="http://www.w3.org/1999/xlink" viewBox="0 0 1287.51 783.3">
  <defs>
    <style>
      .cls-1 {
        fill: none;
      }

      .cls-2 {
        fill: url(#linear-gradient-8);
      }

      .cls-3 {
        fill: url(#linear-gradient-7);
      }

      .cls-4 {
        fill: url(#linear-gradient-5);
      }

      .cls-5 {
        fill: url(#linear-gradient-6);
      }

      .cls-6 {
        fill: url(#linear-gradient-9);
      }

      .cls-7 {
        fill: url(#linear-gradient-4);
      }

      .cls-8 {
        fill: url(#linear-gradient-3);
      }

      .cls-9 {
        fill: url(#linear-gradient-2);
      }

      .cls-10 {
        fill: url(#linear-gradient);
      }

      .cls-11 {
        clip-path: url(#clippath-1);
      }

      .cls-12 {
        clip-path: url(#clippath-3);
      }

      .cls-13 {
        clip-path: url(#clippath-2);
      }

      .cls-14 {
        fill: #fff;
      }

      .cls-15 {
        fill: url(#linear-gradient-10);
      }

      .cls-16 {
        fill: url(#linear-gradient-11);
      }

      .cls-17 {
        fill: url(#linear-gradient-12);
      }

      .cls-18 {
        fill: url(#linear-gradient-13);
      }

      .cls-19 {
        fill: url(#linear-gradient-14);
      }

      .cls-20 {
        fill: url(#linear-gradient-15);
      }

      .cls-21 {
        clip-path: url(#clippath);
      }
    </style>
    <clipPath id="clippath">
      <path class="cls-1" d="M976.2,496.7l-56.86-109.49c7.15-1.75,14.15-4.19,20.99-7.4l125.63,125.5c-6.46.64-12.98.94-19.57.94-22.04,0-45-3.44-70.18-9.55M949.96,374.68c4.51-2.69,8.95-5.76,13.32-9.24l200.4,103.38c-28.38,18.06-54.45,28.93-80.54,33.98-1.39.27-2.77.52-4.16.75l-129.01-128.88ZM971.75,358.07c2.49-2.36,4.96-4.87,7.39-7.53l280.39,19.04c3.83.26,7.25,1.8,9.42,4.02.66.67,1.18,1.42,1.51,2.21.24.59.37,1.17.33,1.72-.08,1.19-.83,2.61-2.45,4.2-12.15,11.9-23.75,22.82-34.9,32.81l-158.25-35.02c-2.81-.62-5.59,1.16-6.22,3.97-.62,2.81,1.15,5.59,3.97,6.22l150.83,33.38c-17.73,15.4-34.3,28.38-50.1,39.17l-201.92-104.17ZM840.82,296.16c2.11,2.74,3.71,5.77,4.8,9.09,1.44,2.74,2.42,5.6,2.97,8.58,23.03,2.58,28.62,3.96,54.95,19.56,11.54,6.83,25.26,8.23,38.86,6.35,11.45-1.58,22.89-5.53,32.74-10.46-30.93,39.66-69.59,47.92-111.67,43.08.47,2.3.78,4.66.89,7.06.16,3.47.97,6.86.13,10.1,15.26,1.79,30.01,1.97,44.2-.19l53.95,103.88c-21.02-5.69-43.64-13.04-68.51-21.64-4.36-1.5-9.1.82-10.6,5.17-1.5,4.35.81,9.1,5.17,10.6,81.16,28.06,139.32,43.18,197.6,31.9,58.19-11.26,115.23-48.68,193.77-125.6,4.8-4.7,7.08-9.87,7.42-14.99.22-3.27-.35-6.4-1.57-9.31-1.13-2.7-2.86-5.21-5.04-7.44-4.89-4.99-12.24-8.45-20.21-8.99l-268.63-18.25c1.46-2.03,2.92-4.13,4.36-6.29,3.18-4.77,4.43-9.02,4.24-12.45-.17-3.25-1.43-5.89-3.57-7.88-2.02-1.87-4.58-2.91-7.5-3.07-3.62-.2-8.12,1.12-12.63,4.1-9.83,6.48-23.34,12.28-36.82,14.14-10.14,1.4-20.12.51-28.06-4.19-31.12-18.44-36.15-18.99-66.4-22.3l-4.81-.53Z"/>
    </clipPath>
    <linearGradient id="linear-gradient" x1="956.45" y1="3282.06" x2="958.53" y2="3282.06" gradientTransform="translate(1618723.82 -471872.71) rotate(90) scale(492.88)" gradientUnits="userSpaceOnUse">
      <stop offset="0" stop-color="#ebc17d"/>
      <stop offset="0" stop-color="#ebc17d"/>
      <stop offset=".19" stop-color="#dfb77c"/>
      <stop offset=".6" stop-color="#c08329"/>
      <stop offset=".87" stop-color="#eabe81"/>
      <stop offset="1" stop-color="#eedcc3"/>
    </linearGradient>
    <clipPath id="clippath-1">
      <path class="cls-1" d="M221.56,505.31l125.63-125.5c6.84,3.21,13.84,5.65,20.99,7.4l-56.86,109.49c-25.18,6.11-48.14,9.55-70.18,9.55-6.6,0-13.11-.31-19.57-.94M204.38,502.81c-26.09-5.05-52.16-15.92-80.54-33.98l200.4-103.38c4.36,3.48,8.8,6.55,13.32,9.24l-129.01,128.88c-1.39-.24-2.77-.49-4.16-.75M19.18,381.72c-1.62-1.58-2.37-3-2.45-4.2-.04-.55.08-1.14.32-1.72.33-.79.85-1.53,1.51-2.21,2.17-2.21,5.59-3.76,9.42-4.02l280.38-19.04c2.44,2.66,4.9,5.17,7.39,7.53l-201.92,104.17c-15.8-10.78-32.37-23.76-50.1-39.17l150.83-33.38c2.81-.62,4.59-3.4,3.97-6.22-.62-2.81-3.4-4.59-6.22-3.97l-158.25,35.02c-11.14-9.99-22.74-20.91-34.9-32.81M441.88,296.7c-30.25,3.32-35.28,3.87-66.4,22.3-7.94,4.7-17.92,5.59-28.06,4.19-13.48-1.86-26.99-7.66-36.82-14.14-4.51-2.97-9.02-4.3-12.63-4.1-2.93.17-5.48,1.2-7.5,3.07-2.14,1.99-3.4,4.63-3.57,7.88-.18,3.43,1.07,7.68,4.24,12.45,1.44,2.17,2.9,4.26,4.36,6.29l-268.63,18.25c-7.97.54-15.32,3.99-20.21,8.99-2.18,2.23-3.91,4.74-5.04,7.44-1.22,2.91-1.79,6.04-1.57,9.31.34,5.12,2.63,10.3,7.42,14.99,78.54,76.92,135.58,114.34,193.77,125.6,58.28,11.28,116.44-3.84,197.6-31.9,4.36-1.5,6.67-6.24,5.17-10.6-1.5-4.35-6.24-6.67-10.6-5.17-24.87,8.6-47.48,15.95-68.51,21.64l53.95-103.88c14.18,2.17,28.94,1.98,44.19.19-.83-3.24-.02-6.63.13-10.1.11-2.4.42-4.76.89-7.06-42.08,4.84-80.74-3.42-111.67-43.08,9.85,4.93,21.3,8.89,32.74,10.46,13.59,1.88,27.32.48,38.86-6.35,26.33-15.6,31.92-16.99,54.95-19.56.55-2.98,1.52-5.84,2.96-8.58,1.08-3.33,2.69-6.36,4.8-9.09l-4.81.53Z"/>
    </clipPath>
    <linearGradient id="linear-gradient-2" x1="960.14" y1="3278.42" x2="962.22" y2="3278.42" gradientTransform="translate(474329.27 -1615450.13) rotate(180) scale(492.88 -492.88)" xlink:href="#linear-gradient"/>
    <clipPath id="clippath-2">
      <path class="cls-1" d="M366.81,114.71c-45.79,45.8-78.83,100.94-97.37,161.13-1.18,3.82,1.65,7.69,5.65,7.69,2.6,0,4.87-1.7,5.63-4.18C328.63,124.35,473.03,11.73,643.75,11.73s315.13,112.62,363.03,267.63c.77,2.48,3.04,4.18,5.63,4.18,4,0,6.83-3.88,5.65-7.7-25.78-83.7-79.6-157.66-156.79-210.27-42.46-28.94-90.57-48.86-141.07-58.37C694.53,2.37,668.95,0,643.76,0c-104.62,0-202.96,40.74-276.94,114.71"/>
    </clipPath>
    <linearGradient id="linear-gradient-3" x1="956.45" y1="3282.17" x2="958.53" y2="3282.17" gradientTransform="translate(1618356.18 -471654.44) rotate(90) scale(492.88)" xlink:href="#linear-gradient"/>
    <clipPath id="clippath-3">
      <path class="cls-1" d="M989.51,549.31c-59.89,131.13-192.17,222.27-345.75,222.27s-285.86-91.14-345.75-222.27c-.97-2.11-3.06-3.47-5.37-3.47-4.32,0-7.18,4.48-5.38,8.4,18.04,39.51,42.76,76.08,73.61,108.27,74.81,78.06,179.1,121.93,287.21,120.77,103-1.1,199.67-41.73,272.62-114.69,33.64-33.64,60.39-72.33,79.57-114.35,1.79-3.93-1.06-8.41-5.38-8.41-2.32,0-4.41,1.36-5.37,3.47"/>
    </clipPath>
    <linearGradient id="linear-gradient-4" x1="956.45" y1="3282.56" x2="958.53" y2="3282.56" gradientTransform="translate(1618549.33 -471498.67) rotate(90) scale(492.88)" xlink:href="#linear-gradient"/>
    <linearGradient id="linear-gradient-5" x1="236.91" y1="401.86" x2="971.76" y2="401.86" gradientTransform="matrix(1,0,0,1,0,0)" xlink:href="#linear-gradient"/>
    <linearGradient id="linear-gradient-6" x1="236.91" y1="361.66" x2="971.76" y2="361.66" gradientTransform="matrix(1,0,0,1,0,0)" xlink:href="#linear-gradient"/>
    <linearGradient id="linear-gradient-7" x1="236.91" y1="498.1" x2="971.76" y2="498.1" gradientTransform="matrix(1,0,0,1,0,0)" xlink:href="#linear-gradient"/>
    <linearGradient id="linear-gradient-8" x1="236.91" y1="351.62" x2="971.76" y2="351.62" gradientTransform="matrix(1,0,0,1,0,0)" xlink:href="#linear-gradient"/>
    <linearGradient id="linear-gradient-9" x1="236.91" y1="341.84" x2="971.76" y2="341.84" gradientTransform="matrix(1,0,0,1,0,0)" xlink:href="#linear-gradient"/>
    <linearGradient id="linear-gradient-10" x1="236.91" y1="421.31" x2="971.76" y2="421.31" gradientTransform="matrix(1,0,0,1,0,0)" xlink:href="#linear-gradient"/>
    <linearGradient id="linear-gradient-11" x1="236.91" y1="468.41" x2="971.76" y2="468.41" gradientTransform="matrix(1,0,0,1,0,0)" xlink:href="#linear-gradient"/>
    <linearGradient id="linear-gradient-12" x1="236.91" y1="440.18" x2="971.76" y2="440.18" gradientTransform="matrix(1,0,0,1,0,0)" xlink:href="#linear-gradient"/>
    <linearGradient id="linear-gradient-13" x1="236.91" y1="361.66" x2="971.76" y2="361.66" gradientTransform="matrix(1,0,0,1,0,0)" xlink:href="#linear-gradient"/>
    <linearGradient id="linear-gradient-14" x1="236.91" y1="400.71" x2="971.76" y2="400.71" gradientTransform="matrix(1,0,0,1,0,0)" xlink:href="#linear-gradient"/>
    <linearGradient id="linear-gradient-15" x1="236.91" y1="385.96" x2="971.76" y2="385.96" gradientTransform="matrix(1,0,0,1,0,0)" xlink:href="#linear-gradient"/>
  </defs>
  <g id="Layer_1-2" data-name="Layer 1">
    <g>
      <g class="cls-21">
        <rect class="cls-10" x="823.9" y="172" width="480.69" height="482.68" transform="translate(22.49 880.48) rotate(-45.38)"/>
      </g>
      <g class="cls-11">
        <rect class="cls-9" x="-18.08" y="172.99" width="482.68" height="480.7" transform="translate(-225.99 275.97) rotate(-44.62)"/>
      </g>
      <g>
        <path class="cls-14" d="M643.75,199.56c106.09,0,192.1,86,192.1,192.1s-86.01,192.1-192.1,192.1-192.1-86.01-192.1-192.1,86.01-192.1,192.1-192.1M643.75,186.31c-54.85,0-106.41,21.36-145.2,60.14-38.78,38.79-60.14,90.35-60.14,145.2s21.36,106.42,60.14,145.2c38.79,38.78,90.35,60.14,145.2,60.14s106.41-21.36,145.2-60.14c38.78-38.78,60.14-90.35,60.14-145.2s-21.36-106.41-60.14-145.2c-38.79-38.78-90.35-60.14-145.2-60.14"/>
        <path class="cls-14" d="M643.75,177.06c118.52,0,214.59,96.08,214.59,214.59s-96.08,214.59-214.59,214.59-214.59-96.08-214.59-214.59,96.08-214.59,214.59-214.59M643.75,170.44c-59.09,0-114.64,23.01-156.42,64.79-41.78,41.78-64.79,97.33-64.79,156.42s23.01,114.64,64.79,156.42c41.78,41.78,97.33,64.79,156.42,64.79s114.64-23.01,156.42-64.79c41.78-41.78,64.79-97.33,64.79-156.42s-23.01-114.64-64.79-156.42c-41.78-41.78-97.33-64.79-156.42-64.79"/>
      </g>
      <g class="cls-13">
        <rect class="cls-8" x="279.1" y="-225.07" width="729.31" height="733.67" transform="translate(90.66 500.38) rotate(-45.38)"/>
      </g>
      <g class="cls-12">
        <rect class="cls-7" x="307.16" y="326.32" width="673.19" height="677.64" transform="translate(-281.85 656.12) rotate(-45.38)"/>
      </g>
      <path class="cls-14" d="M495.61,156.65c-.73,14.27-5.68,25.24-14.84,32.9-8.9,7.44-18.61,10.54-29.15,9.3-10.34-1.2-19.26-6.28-26.75-15.24-7.64-9.14-11.05-19.16-10.26-30.07.8-10.91,5.74-20.16,14.81-27.75,3.64-3.04,8.37-5.69,14.21-7.96,1.56-.6,2.84-1.19,3.85-1.79h.16c1.55-1.68,2.08-3.96,1.59-6.82l1.82-1.52,18.24,20.01-2.12,2.6c-13.16-7.99-24.36-8.11-33.61-.38-6.83,5.71-9.74,13.01-8.73,21.91.87,7.66,4.33,15.09,10.36,22.31,6.4,7.66,13.38,12.37,20.94,14.14,8.39,1.93,16.27-.19,23.63-6.34,6.5-5.44,10.52-13.94,12.05-25.51l3.8.22Z"/>
      <path class="cls-14" d="M571.8,98.05c4.06,10.45,4.04,20.55-.04,30.27-4.08,9.73-11.31,16.6-21.69,20.63-10.56,4.1-20.68,3.81-30.35-.87-9.47-4.59-16.27-12.21-20.39-22.84-4.18-10.78-4.32-21.08-.4-30.91,3.98-10.1,11.32-17.22,22.02-21.38,10.7-4.15,20.92-3.65,30.65,1.5,9.25,4.88,15.98,12.75,20.19,23.6M557.14,99.58c-3.18-8.19-7.56-14.41-13.13-18.65-6.66-5.02-13.83-6.04-21.52-3.06-8.23,3.19-12.82,9.42-13.77,18.67-.74,7.15.65,15.27,4.18,24.36,3.39,8.73,7.81,15.34,13.28,19.83,6.81,5.62,14.24,6.87,22.29,3.75,15.12-5.87,18.02-20.84,8.68-44.91"/>
      <path class="cls-14" d="M651.88,73.2c.68,9.57-3.44,16.28-12.36,20.12-5.17,2.22-13.68,3.76-25.52,4.6l1.2,16.83c.38,5.3,1.12,8.67,2.23,10.1,1.52,1.86,4.83,2.67,9.91,2.42l.23,3.23-33.5,2.39-.23-3.23c4.58-.79,7.42-2.13,8.52-4.03.78-1.45,1-4.63.65-9.55l-3.32-46.53c-.34-4.77-1.04-7.83-2.1-9.18-1.41-1.87-4.36-2.68-8.87-2.44l-.23-3.23,24.39-1.74c10.99-.78,19.34-.2,25.04,1.75,8.63,2.94,13.28,9.1,13.95,18.48M638.36,72.95c-.76-10.72-8.37-15.57-22.83-14.54-2.88.21-4.21,1.85-4,4.92l2.08,29.12,7.32-.52c12.45-.89,18.26-7.21,17.42-18.98"/>
      <path class="cls-14" d="M745.37,86.86l-3.45-.75c.35-7.02-1.31-11.94-5-14.76-2.36-1.82-7.46-3.58-15.29-5.3l-12.21,55.85c-1.08,4.93-1.2,8.28-.36,10.04,1,2.11,3.89,3.67,8.68,4.68l-.69,3.16-34.05-7.45.69-3.16c4.92.96,8.18.72,9.8-.7,1.31-1.13,2.52-4.22,3.62-9.27l12.21-55.85-5.2-1.14c-6.51-1.42-11.06-1.48-13.63-.17-2.58,1.31-5.22,5.01-7.93,11.08l-3.33-.73,5.42-19.94,63.98,13.99-3.28,20.41Z"/>
      <path class="cls-14" d="M775.03,164.62l-32.03-15.81,1.33-2.7c4.27,1.98,7.4,2.62,9.39,1.93,1.99-.69,4.03-3.14,6.11-7.36l21.16-42.86c2.25-4.56,3.2-7.74,2.85-9.55-.44-2.32-2.97-4.6-7.58-6.84l1.43-2.9,32.03,15.81-1.43,2.9c-4.65-2.34-8.07-2.98-10.27-1.91-1.77.89-3.84,3.73-6.21,8.54l-20.4,41.31c-2.27,4.6-3.23,7.84-2.87,9.73.49,2.39,3.1,4.73,7.82,7.02l-1.33,2.7Z"/>
      <path class="cls-14" d="M846.99,202.55c-14.17,1.82-25.84-1.11-35.01-8.77-8.9-7.44-13.68-16.45-14.32-27.03-.66-10.39,2.76-20.07,10.25-29.03,7.64-9.14,16.89-14.28,27.78-15.43,10.88-1.15,20.86,2.07,29.94,9.65,3.64,3.04,7.09,7.23,10.36,12.57.87,1.43,1.68,2.59,2.44,3.47v.16c1.96,1.22,4.29,1.34,7.02.36l1.82,1.52-16.46,21.5-2.93-1.63c5.53-14.36,3.66-25.42-5.59-33.15-6.83-5.71-14.53-7.28-23.11-4.7-7.38,2.22-14.08,6.94-20.12,14.15-6.4,7.66-9.8,15.36-10.2,23.11-.41,8.6,3.07,15.98,10.43,22.13,6.5,5.44,15.59,7.88,27.25,7.33l.46,3.78Z"/>
      <path class="cls-14" d="M417.66,624.25c-14.27-.77-25.22-5.75-32.86-14.93-7.41-8.92-10.49-18.64-9.21-29.17,1.23-10.34,6.33-19.24,15.31-26.7,9.16-7.61,19.19-11,30.1-10.18,10.91.83,20.15,5.79,27.71,14.89,3.03,3.64,5.67,8.39,7.92,14.24.6,1.56,1.19,2.85,1.78,3.86v.16c1.68,1.55,3.95,2.09,6.81,1.61l1.52,1.82-20.07,18.18-2.6-2.13c8.02-13.13,8.18-24.34.47-33.61-5.69-6.84-12.99-9.78-21.89-8.79-7.66.86-15.1,4.29-22.34,10.3-7.67,6.38-12.41,13.35-14.2,20.9-1.95,8.38.14,16.27,6.28,23.65,5.42,6.52,13.91,10.56,25.48,12.12l-.23,3.8Z"/>
      <path class="cls-14" d="M516.78,664.36c-6,9.47-14.13,15.45-24.38,17.94-10.25,2.49-20.08.75-29.48-5.21-9.57-6.07-15.34-14.38-17.31-24.94-1.93-10.35.16-20.34,6.27-29.97,6.19-9.76,14.4-15.99,24.63-18.67,10.49-2.8,20.58-1.12,30.28,5.03,9.7,6.15,15.36,14.67,16.99,25.56,1.56,10.34-.77,20.43-7,30.26M506.84,653.47c4.7-7.42,7.11-14.63,7.22-21.64.09-8.34-3.35-14.72-10.32-19.14-7.45-4.72-15.19-4.72-23.2,0-6.19,3.65-11.9,9.59-17.12,17.82-5.02,7.91-7.71,15.39-8.08,22.46-.48,8.82,2.92,15.54,10.21,20.16,13.7,8.69,27.46,2.13,41.29-19.68"/>
      <path class="cls-14" d="M623.73,730.84l-31.82-6.55.61-2.94c4.17.54,6.99.26,8.44-.86,1.45-1.12,2.6-3.75,3.46-7.91l10.26-49.88-41.96,57.64-1.47-.3-15.89-66.47-8.93,43.37c-1.05,5.14-1.26,8.61-.61,10.44.85,2.58,3.58,4.59,8.19,6.05l-.6,2.94-26.78-5.51.61-2.94c3.77.42,6.51.2,8.22-.67,2.14-1.05,3.57-3.32,4.29-6.79l11.22-54.52c.59-2.87-.17-4.99-2.29-6.37-1.14-.75-3.45-1.48-6.93-2.19l.67-3.28,22.77,4.69,14.67,63.11,36.93-52.5,22.74,4.68-.68,3.29c-4.63-.44-7.7.03-9.2,1.41-1.18,1.14-2.26,4.08-3.24,8.84l-9.88,48.01c-.8,3.89-.67,6.63.38,8.22,1.05,1.59,3.52,2.95,7.42,4.06l-.61,2.94Z"/>
      <path class="cls-14" d="M712.07,665.87c1.25,9.51-2.46,16.45-11.13,20.82-5.03,2.53-13.43,4.57-25.2,6.12l2.21,16.73c.7,5.27,1.64,8.59,2.83,9.95,1.63,1.77,4.98,2.38,10.04,1.83l.42,3.21-33.29,4.39-.42-3.21c4.52-1.06,7.28-2.57,8.27-4.53.7-1.49.72-4.68.08-9.57l-6.1-46.25c-.63-4.74-1.51-7.75-2.65-9.04-1.52-1.78-4.52-2.42-9-1.9l-.42-3.21,24.24-3.19c10.93-1.44,19.3-1.36,25.1.25,8.79,2.42,13.8,8.29,15.03,17.61M698.56,666.43c-1.4-10.66-9.29-15.04-23.65-13.15-2.87.38-4.1,2.09-3.69,5.15l3.82,28.94,7.28-.96c12.38-1.63,17.8-8.29,16.26-19.98"/>
      <path class="cls-14" d="M810.15,686.95l-27.57,11.39-1.04-2.51,1.44-.6c3.6-1.48,4.9-3.42,3.92-5.81-.88-2.14-2.86-4.7-5.93-7.68-2.47-2.23-4.91-4.48-7.34-6.72l-27.35,11.3c-.1,3.29-.2,6.59-.3,9.88,0,4.25.45,7.44,1.33,9.58,1,2.42,3.94,2.58,8.83.48l1.06,2.56-21.9,9.05-1.06-2.56c2.8-1.91,4.59-4.89,5.36-8.97.34-1.81.55-5.44.63-10.89l.62-66.17,2.51-1.04,52.87,51.52c2.83,2.71,4.7,4.31,5.61,4.81,1.97,1.02,4.4,1.02,7.31-.02l.99,2.4ZM769.53,670.76l-22.96-23.02-.19,32.58,23.15-9.56Z"/>
      <path class="cls-14" d="M864.97,620.14c4.2,5.13,5.57,10.86,4.11,17.17-1.35,5.78-4.66,10.83-9.94,15.15-2.77,2.27-5.75,3.96-8.93,5.06-4.74,1.63-7.21,2.54-7.42,2.71-1.49,1.22-1.55,2.94-.19,5.16l-2.5,2.05-18.82-17.54,2.68-2.2c12.5,7.5,22.93,7.83,31.28,1,3.01-2.46,4.73-5.41,5.16-8.85.43-3.43-.58-6.64-3.02-9.63-3.19-3.91-8.62-5.49-16.28-4.75-6.97.92-13.93,1.84-20.9,2.75-8.18.17-14.44-2.4-18.78-7.72-3.68-4.5-5.15-9.58-4.39-15.23.69-5.54,3.3-10.17,7.84-13.88,1.49-1.22,4.04-2.44,7.64-3.67,3.6-1.23,6.15-2.45,7.64-3.67,1.7-1.39,2.02-3.37.97-5.94l2.19-1.79,18.12,18.41-2.51,2.05c-12.1-7.43-21.79-8.17-29.07-2.21-2.39,1.95-3.87,4.46-4.45,7.52-.6,3.23.07,6.02,2,8.38,2.71,3.31,8.02,4.57,15.93,3.77,7.36-.8,14.71-1.58,22.05-2.35,8.62.07,15.15,2.82,19.59,8.25"/>
      <path class="cls-14" d="M916.1,556.65c5.34,3.92,8.1,9.12,8.27,15.6.14,5.94-1.81,11.65-5.84,17.15-2.12,2.89-4.58,5.27-7.38,7.13-4.18,2.76-6.35,4.26-6.51,4.47-1.14,1.55-.77,3.23,1.1,5.04l-1.91,2.61-22.61-12.28,2.05-2.8c13.98,4.14,24.16,1.86,30.54-6.84,2.3-3.14,3.23-6.42,2.79-9.86-.44-3.43-2.22-6.29-5.33-8.57-4.07-2.99-9.72-3.16-16.95-.54-6.52,2.63-13.03,5.26-19.55,7.88-7.88,2.2-14.58,1.28-20.11-2.78-4.69-3.44-7.37-7.99-8.05-13.65-.71-5.54.66-10.67,4.13-15.4,1.14-1.56,3.3-3.37,6.48-5.46,3.18-2.09,5.34-3.91,6.48-5.46,1.3-1.77,1.12-3.77-.55-5.99l1.68-2.28,22.14,13.3-1.91,2.61c-13.57-4.17-23.14-2.47-28.7,5.11-1.82,2.49-2.63,5.29-2.43,8.4.23,3.28,1.57,5.81,4.02,7.61,3.45,2.53,8.9,2.42,16.37-.32,6.93-2.61,13.85-5.2,20.76-7.78,8.37-2.08,15.37-1.05,21.03,3.1"/>
      <g>
        <path class="cls-4" d="M750.43,402.11c8.27,1.8,16.15,5.95,22.6,12.4-6.76-6.76-10.99-15.11-12.66-23.88l-11.35-1.41,1.41,12.89Z"/>
        <path class="cls-5" d="M757.84,359.41c-1.72,5.19-4.3,10.2-6.62,14.59l9.21-1.02c1.73-8.69,5.95-16.96,12.66-23.67-4.49,4.49-9.68,7.86-15.25,10.1"/>
        <g>
          <path class="cls-3" d="M569.01,483.34c-9.38,12.98-19.15,25.23-29.48,36.35-3.21,3.46-.34,9.03,4.33,8.33,32.24-4.74,52.17-32.24,69.44-59.9-13.98,6.13-29.57,11.94-44.29,15.22"/>
          <path class="cls-2" d="M754.37,255.36l-58.35,13.79c-4.2.99-5.22,6.51-1.66,8.94l12.04,8.22c-44.42,42.72-77.51,105.35-113.52,161.69,14.21-3.26,24.72-4.03,38.13-8.84,28.95-47.72,57.29-97.89,94.22-133.28l7,9.98c2.31,3.29,7.37,2.62,8.74-1.15l19.21-52.82c1.21-3.33-1.33-6.68-4.64-6.68-.38,0-.77.05-1.17.14"/>
          <path class="cls-6" d="M639.02,354.17c-7.95,12.09-15.68,24.44-23.26,36.78-.02-.04-.04-.06-.04-.06-25.13-39.5-36.93-78.04-75.3-78.67-4.65-.06-6.61-6.04-2.91-8.89,9.14-7.06,20.91-10.59,32.65-10.59,7.64,0,15.27,1.5,22.16,4.49,23.18,9.95,33.06,37.36,46.71,56.94Z"/>
          <path class="cls-15" d="M684.67,425.05c-.64.37-1.27.79-1.89,1.16-9.22,5.63-20.66,11.71-34.41,17.51-.35-.54-1.83-2.87-3.92-6.27,1.64-2.72,3.28-5.46,4.92-8.18,6.08-10.09,12.21-20.29,18.46-30.36,8.76,13.6,16.3,25.29,16.84,26.15Z"/>
          <path class="cls-16" d="M685.26,429.69c-12.51,8.13-25.04,15.04-33.18,19.33,7.08,10.69,17.65,26.69,18.32,27.72h-.02c14.82,32.71,57.49,40.61,84.21,20.97,3.91-2.87,1.75-9-3.12-8.98-30.13.29-48.5-35.36-64.34-60.25-.63.4-1.24.81-1.86,1.21"/>
          <path class="cls-17" d="M528.31,431.57c-13.83,16.1-23.82,44.43,2.81,53.61,29.95,10.35,84.77-15.6,111.8-29.97,0,0,2.72-1.32,7.21-3.64,7.99-4.18,21.57-11.56,35.13-20.36,8.51-5.52,16.99-11.58,24.06-17.76.25-.2,2.88-2.54,6.58-5.54,1.75-1.44,3.23-2.6,4.27-3.41-1.23.47-2.47.97-3.7,1.44-.83.78-2.09,1.93-3.61,3.3-4.33,3.84-13.54,11.74-28.36,20.79-9.7,5.93-21.8,12.33-36.48,18.36-13.42,5.54-29.01,10.8-46.87,15.11-27.28,6.58-59.47,14.23-69.55.45-2.04-2.78-3.12-6.53-2.86-11.45,1.06-20.09,26.47-40.72,42.93-49.48l21.87-10.21c-23.73,6.24-49.1,20.02-65.22,38.77"/>
          <path class="cls-18" d="M720.52,372.98l9.16,1.02h0c-2.33-4.41-4.88-9.4-6.63-14.59-5.53-2.24-10.73-5.61-15.21-10.1,6.73,6.73,10.96,15.01,12.68,23.67"/>
          <path class="cls-19" d="M720.55,390.62c-1.18,6.19-3.66,12.19-7.39,17.54-.94,1.38-2.01,2.77-3.16,4.04,1.01-.7,2.01-1.41,3.03-2.14.05-.05.1-.08.15-.11,5.27-3.89,11.17-6.5,17.31-7.85l1.4-12.89-11.35,1.41Z"/>
          <path class="cls-20" d="M735.32,364.06c-.52-1.15-1.04-2.4-1.54-3.73-.18-.44-.37-.88-.52-1.38-.13-.39-.29-.76-.42-1.15-.16-.39-.29-.76-.37-1.15-.23-.76-.42-1.51-.6-2.27-.63-2.9-.76-5.79-.08-8.61.1-.42.21-.81.34-1.23.41-1.28,1.09-2.38,1.93-3.26.13-.16.26-.28.42-.44.13-.13.29-.26.44-.39.37-.29.76-.57,1.18-.81.97-.6,2.04-.97,3.08-1.1.21-.05.42-.05.65-.05.39-.03.81-.05,1.2,0,.23,0,.44,0,.65.05,1.04.13,2.11.5,3.08,1.1.42.23.78.52,1.17.81,1.23,1.02,2.22,2.4,2.8,4.1.78,2.4.94,4.88.67,7.39-.08.81-.21,1.64-.39,2.45-.34,1.54-.81,3.1-1.38,4.62-.15.5-.34.94-.52,1.38-.49,1.33-1.01,2.59-1.54,3.73-.39.91-5.12,10.72-5.12,10.72l-5.14-10.78ZM738.01,330.29c-.31.05-.6.11-.94.16-.6.1-1.23.26-1.83.47h-.02c-1.47.49-2.87,1.17-4.18,2.06-.41.29-.83.6-1.25.94,0,0-.02.05-.05.05-.39.34-.78.71-1.17,1.1-1.13,1.15-2.12,2.51-2.93,4.07-.55,1.07-.99,2.17-1.33,3.29-1.2,4.12-.92,8.48.18,12.81.18.81.42,1.59.68,2.4v.03c2.19,6.99,6.13,13.83,9.08,19.47l-20.33-2.24c-.23-.03-.44-.03-.65,0-1.33.13-2.38,1.15-2.64,2.4v.03c-.1.52-.05,1.1.16,1.64.36.91.57,1.9.57,2.93s-.18,1.98-.52,2.89c-.78,2.11.94,4.33,3.19,4.04l17.46-2.19,3.34-.37-4.31,50.81c-.26,3.18,2.89,5.59,5.9,4.46l.13-.05c1.91-.71,3.89-.71,3.89-.71,0,0,1.98,0,3.86.71l.16.05c1.8.68,3.65.08,4.8-1.2.13-.13.23-.26.34-.42.13-.23.28-.5.39-.76.31-.65.44-1.38.36-2.17l-4.28-50.73,20.78,2.61c2.27.28,3.99-1.91,3.18-4.05-.34-.89-.52-1.88-.49-2.9,0-1.02.18-2.01.55-2.92.23-.57.26-1.18.16-1.7-.31-1.43-1.67-2.56-3.29-2.37l-20.33,2.24s.02-.02.02-.05c.26-.5.52-.99.78-1.51.86-1.62,1.78-3.32,2.69-5.09.88-1.7,1.77-3.47,2.61-5.27.05-.08.08-.18.13-.28.47-1.05.94-2.11,1.36-3.19.32-.76.63-1.51.89-2.27.42-1.17.81-2.35,1.12-3.55.36-1.36.63-2.69.83-4.02.68-4.44.32-8.82-1.8-12.87-2.14-4.18-5.64-6.86-9.55-8.17h-.03c-.6-.21-1.22-.37-1.82-.47-.34-.05-.63-.11-.94-.16-.8-.13-1.6-.19-2.4-.19-.84,0-1.68.07-2.51.19"/>
        </g>
      </g>
    </g>
  </g>
</svg>